<?xml version="1.0" encoding="iso-8859-1"?>
<!-- Generator: Adobe Illustrator 18.0.0, SVG Export Plug-In . SVG Version: 6.00 Build 0)  -->
<!DOCTYPE svg PUBLIC "-//W3C//DTD SVG 1.1//EN" "http://www.w3.org/Graphics/SVG/1.1/DTD/svg11.dtd">
<svg version="1.1" id="Capa_1" xmlns="http://www.w3.org/2000/svg" xmlns:xlink="http://www.w3.org/1999/xlink" x="0px" y="0px"
	 viewBox="0 0 479.003 479.003" style="enable-background:new 0 0 479.003 479.003;" xml:space="preserve">
<path d="M473.178,227.271c-3.565-0.372-6.767,2.219-7.14,5.79c-2.347,22.464-12.435,43.631-28.406,59.602l-81.163,81.163
	c-1.955,1.955-4.554,3.031-7.318,3.031s-5.363-1.077-7.318-3.031s-3.031-4.553-3.031-7.317c0-2.765,1.076-5.363,3.031-7.318
	l52.145-52.145c2.539-2.539,2.539-6.654,0-9.192c-2.538-2.538-6.654-2.538-9.192,0l-76.272,76.272
	c-4.036,4.035-10.601,4.035-14.635,0c-4.035-4.035-4.035-10.601,0-14.636c0.013-0.013,0.024-0.028,0.038-0.042l71.246-71.246
	c2.539-2.539,2.539-6.654,0-9.192c-2.538-2.538-6.654-2.538-9.192,0l-89.867,89.867c-1.952,1.955-4.548,3.031-7.313,3.031
	c-2.766,0-5.366-1.078-7.315-3.027c-1.955-1.962-3.032-4.56-3.032-7.316c0-2.77,1.074-5.37,3.024-7.32l33.518-33.518l43.922-19.31
	c1.59-0.699,2.833-2.005,3.455-3.627c0.621-1.622,0.566-3.425-0.15-5.007l-6.014-13.268l19.015-19.015
	c2.539-2.539,2.539-6.654,0-9.192c-2.538-2.538-6.654-2.538-9.192,0l-15.626,15.626c-3.155-6.493-6.601-12.812-10.328-18.939
	L340.8,217.25c7.107,13.689,18.548,24.495,32.857,30.833c8.846,3.918,18.218,5.883,27.611,5.883c8.302,0,16.62-1.536,24.597-4.615
	c3.349-1.293,5.016-5.056,3.723-8.405c-1.293-3.349-5.055-5.015-8.405-3.723c-28.41,10.97-60.45-3.222-71.418-31.634
	c-1.158-2.999-4.53-5.893-7.627-5.541c-0.026,0.001-46.514-0.076-46.514-0.076c-6.435-0.01-11.663-5.254-11.652-11.689
	c0.01-6.427,5.245-11.652,11.677-11.652c0.004,0,0.008,0,0.011,0h111.498c3.59,0,6.5-2.91,6.5-6.5s-2.91-6.5-6.5-6.5H295.666
	c-0.008,0-0.015,0-0.023,0c-13.583,0-24.649,11.045-24.671,24.631c-0.021,13.604,11.028,24.688,24.632,24.71l31.042,0.049
	l-23.814,23.821c-16.898-24.446-38.464-45.424-63.688-61.756l-9.227-5.979c0.028-0.504,0.047-1.011,0.047-1.52
	c0-7.067-2.752-13.711-7.75-18.708l-27.923-27.923c-12.368-12.368-27.721-21.692-44.399-26.963
	c-27.529-8.701-56.863-6.283-82.597,6.81l-4.434,2.256c-3.2,1.628-4.474,5.542-2.846,8.741c1.628,3.2,5.542,4.474,8.741,2.846
	l4.434-2.256c22.677-11.537,48.525-13.667,72.784-6.001c14.697,4.645,28.226,12.861,39.125,23.76l27.923,27.923
	c2.542,2.542,3.942,5.921,3.942,9.516c0,3.594-1.4,6.974-3.942,9.516c-5.247,5.246-13.784,5.247-19.031,0l-29.514-29.514
	c-2.538-2.538-6.654-2.538-9.192,0l-13.723,13.723c-8.47,8.47-19.731,13.135-31.71,13.135s-23.24-4.665-31.71-13.135
	c-2.538-2.538-6.654-2.538-9.192,0c-2.539,2.539-2.539,6.654,0,9.192c10.925,10.925,25.452,16.942,40.902,16.942
	s29.977-6.017,40.902-16.942l9.126-9.126l9.475,9.475l-14.847,15.82c-3.063-1.447-6.434-2.221-9.888-2.221
	c-6.179,0-11.994,2.404-16.381,6.777c-2.694,2.694-4.636,5.938-5.736,9.476c-8.945-5.631-20.926-4.573-28.708,3.209
	c-2.743,2.743-4.64,6.012-5.717,9.483c-8.947-5.644-20.939-4.59-28.727,3.198c-2.58,2.58-4.396,5.628-5.502,8.868l-42.755-42.755
	c-2.538-2.538-6.654-2.538-9.192,0c-2.539,2.539-2.539,6.654,0,9.192l57.45,57.45l22.581,22.581
	c4.375,4.375,10.19,6.784,16.377,6.784c6.187,0,12.003-2.41,16.377-6.784c2.693-2.693,4.634-5.934,5.734-9.469
	c3.661,2.314,7.896,3.573,12.333,3.573c6.187,0,12.003-2.41,16.378-6.784c2.742-2.742,4.638-6.009,5.715-9.479
	c3.665,2.321,7.908,3.583,12.351,3.583c6.188,0,12.005-2.41,16.381-6.785c3.919-3.919,6.246-8.998,6.692-14.461
	c3.52,2.44,6.968,4.98,10.326,7.617c7.312,5.746,14.292,11.995,20.744,18.574c10.049,10.243,18.978,21.376,26.737,33.289
	l-14.617,14.626c-4.417,4.403-6.851,10.27-6.851,16.52c0,6.229,2.43,12.089,6.843,16.501c2.582,2.583,5.664,4.48,9.024,5.615
	l-0.205,0.205c-4.405,4.406-6.831,10.27-6.831,16.512c0,6.22,2.423,12.078,6.832,16.501c4.412,4.412,10.278,6.842,16.516,6.842
	c6.24,0,12.104-2.431,16.508-6.842l3.801-3.801c1.11,3.309,2.956,6.423,5.586,9.053c4.552,4.552,10.531,6.828,16.51,6.828
	c5.979,0,11.958-2.276,16.51-6.828l9.324-9.323c1.134,3.361,3.03,6.442,5.612,9.024c4.41,4.41,10.273,6.839,16.51,6.839
	s12.1-2.429,16.51-6.839l81.163-81.163c18.072-18.072,29.488-42.024,32.144-67.444C479.34,230.841,476.748,227.644,473.178,227.271z
	 M105.497,262.737c-1.919,1.919-4.471,2.977-7.185,2.977c-2.714,0-5.266-1.057-7.185-2.977l-22.581-22.581
	c-3.962-3.962-3.962-10.409,0-14.371c1.981-1.981,4.583-2.971,7.185-2.971s5.205,0.991,7.185,2.971l22.581,22.581
	c1.919,1.919,2.977,4.471,2.977,7.185C108.474,258.267,107.417,260.818,105.497,262.737z M139.942,250.056L139.942,250.056
	c-1.92,1.919-4.471,2.977-7.186,2.977c-2.714,0-5.266-1.057-7.185-2.977l-22.581-22.581c-3.962-3.962-3.961-10.408,0-14.37
	c1.981-1.981,4.583-2.972,7.186-2.972c2.602,0,5.204,0.991,7.185,2.972l22.613,22.616
	C143.901,239.686,143.892,246.106,139.942,250.056z M174.019,237.728c-4.052,3.677-10.36,3.294-14.229-0.574l-22.388-22.391
	c-3.93-3.967-3.92-10.389,0.024-14.334c1.869-1.863,4.333-2.905,6.957-2.965l-0.206,0.22c-0.893,0.952-1.55,2.127-1.765,3.414
	c-0.506,3.029,1.084,5.838,3.682,7.038l11.895,5.495c4.031,1.862,8.053,3.882,12.003,6.017c1.528,0.826,2.919,1.882,4.147,3.11v0
	c2.036,2.036,3.291,4.788,3.226,7.666C177.3,233.219,176.114,235.826,174.019,237.728z M208.629,229.5
	c-9.207-7.229-19.038-13.793-29.219-19.513c-5.215-2.928-10.588-5.673-15.97-8.159l-3.716-1.717l18.83-20.063l6.246,6.246
	c5.158,5.158,11.933,7.737,18.708,7.737c6.775,0,13.55-2.579,18.708-7.737c1.351-1.351,2.531-2.825,3.544-4.392l6.318,4.094
	c34.68,22.455,62.03,54.218,79.092,91.855l6.487,14.312l-43.659,19.194c-10.908-23.036-25.478-43.921-43.374-62.163
	C223.781,242.218,216.382,235.592,208.629,229.5z M249.967,333.075c-2.763,0-5.362-1.078-7.32-3.036
	c-1.957-1.957-3.035-4.552-3.035-7.308c0-2.77,1.075-5.366,3.037-7.321l12.377-12.385c3.566,6.304,6.833,12.795,9.769,19.476
	c0.003,0.007,0.007,0.013,0.01,0.02l-7.519,7.519C255.329,331.997,252.73,333.075,249.967,333.075z"/>
<g>
</g>
<g>
</g>
<g>
</g>
<g>
</g>
<g>
</g>
<g>
</g>
<g>
</g>
<g>
</g>
<g>
</g>
<g>
</g>
<g>
</g>
<g>
</g>
<g>
</g>
<g>
</g>
<g>
</g>
</svg>
